<svg xmlns="http://www.w3.org/2000/svg" width="80.728" height="58.114" viewBox="0 0 80.728 58.114">
  <path id="airplane" d="M9.5,34.321a1.394,1.394,0,0,0-.683,1.825l3.134,6.727a1.391,1.391,0,0,0,1.838.683L37.464,32.5,35.319,54.919a1.393,1.393,0,0,0,.459,1.17,6.079,6.079,0,0,0,3.677,1.393,4.478,4.478,0,0,0,1.1-.139c1.922-.5,3.412-2.214,4.429-5.139L54.3,24.615l18.453-8.608c5.432-2.534,8.231-7.673,6.351-11.684A7.051,7.051,0,0,0,73.66.521a12.909,12.909,0,0,0-7.6,1.171L44.761,11.676l-22.9-8.955c-2.883-1.086-5.167-1.058-6.768.1a5.68,5.68,0,0,0-2.076,4.5,1.394,1.394,0,0,0,.6,1.1l15.417,10.6-8.829,4.178L5.4,19.434a1.393,1.393,0,0,0-1.546.669L.167,26.745a1.393,1.393,0,0,0,.724,1.964l10.961,4.527Zm6.378-27.7a2.383,2.383,0,0,1,.836-1.5c.794-.571,2.243-.488,4.178.236L41.28,13.306l-9.3,4.345ZM3.343,26.731l2.423-4.3,14.247,3.537a1.4,1.4,0,0,0,.92-.083L67.24,4.253a10.179,10.179,0,0,1,5.947-.947,4.362,4.362,0,0,1,3.4,2.2c1.169,2.507-1.129,6.17-5.015,7.98L55.527,21.008l.975-2.884a1.416,1.416,0,1,0-2.688-.891L42.352,51.34c-.683,1.936-1.532,3.093-2.479,3.343a2.357,2.357,0,0,1-1.7-.32l2.786-29.247a1.4,1.4,0,0,0-2.786-.264l-.431,4.47-23.9,11.142L11.88,36.285l3.927-1.838a1.392,1.392,0,0,0,0-2.549Zm0,0" transform="translate(0.509 0.132)" fill="#1020a5" stroke="#fdffec" stroke-width="1"/>
</svg>
