<svg id="balloons" xmlns="http://www.w3.org/2000/svg" width="160.108" height="159.291" viewBox="0 0 160.108 159.291">
  <path id="Path_51" data-name="Path 51" d="M161.9,80.951a79.517,79.517,0,0,1-31.549,63.489,0,0,0,0,1,0,0A79.3,79.3,0,0,1,82.256,160.6q-3.131,0-6.206-.237A79.648,79.648,0,1,1,161.9,80.951Z" transform="translate(-1.794 -1.305)" fill="#154244"/>
  <path id="Path_52" data-name="Path 52" d="M294.786,62.16c0,27.006-21.893,60.51-48.9,60.51s-48.9-33.5-48.9-60.51a48.9,48.9,0,0,1,97.8,0Z" transform="translate(-135.388 -9.522)" fill="#ffde51"/>
  <path id="Path_53" data-name="Path 53" d="M245.886,122.677c-27,0-48.9-33.507-48.9-60.511A48.9,48.9,0,0,1,245.5,13.27c-16.378.338-29.6,22.1-29.6,48.9C215.9,89.171,229.33,122.677,245.886,122.677Z" transform="translate(-135.387 -9.528)" fill="#eac420"/>
  <g id="Group_16" data-name="Group 16" transform="translate(122.434 16.279)">
    <ellipse id="Ellipse_2" data-name="Ellipse 2" cx="10.239" cy="10.239" rx="10.239" ry="10.239" transform="translate(3.251 12.675)" fill="#ffe778"/>
    <ellipse id="Ellipse_3" data-name="Ellipse 3" cx="5.12" cy="5.12" rx="5.12" ry="5.12" fill="#ffe778"/>
  </g>
  <path id="Path_54" data-name="Path 54" d="M297.564,133.2V126.33c0-4.456,2.94-6.116,6.78-6.116,3.793,0,6.733,1.66,6.733,6.116V133.2c0,4.456-2.94,6.116-6.733,6.116C300.5,139.321,297.564,137.662,297.564,133.2Zm9.482-6.875c0-1.754-1.043-2.56-2.7-2.56a2.331,2.331,0,0,0-2.655,2.56V133.2a2.331,2.331,0,0,0,2.655,2.56c1.66,0,2.7-.806,2.7-2.56Zm18.775-5.879a1.863,1.863,0,0,1-.189.853l-17.069,34.421a1.954,1.954,0,0,1-1.849,1.043,2.2,2.2,0,0,1-2.228-2.086,2.24,2.24,0,0,1,.189-.806l17.068-34.563a1.846,1.846,0,0,1,1.707-1A2.331,2.331,0,0,1,325.821,120.451ZM318.947,148.9v-6.875c0-4.457,2.939-6.116,6.78-6.116,3.793,0,6.733,1.66,6.733,6.116V148.9c0,4.5-2.939,6.116-6.733,6.116C321.886,155.015,318.947,153.4,318.947,148.9Zm9.483-6.875c0-1.754-1.043-2.56-2.7-2.56a2.331,2.331,0,0,0-2.655,2.56V148.9a2.331,2.331,0,0,0,2.655,2.56c1.659,0,2.7-.806,2.7-2.56Z" transform="translate(-204.513 -81.727)" fill="#eac420"/>
  <path id="Path_55" data-name="Path 55" d="M228.775,241.994c0,11.258-3.8,23.643-10.2,34.26a0,0,0,0,1,0,0,79.3,79.3,0,0,1-48.093,16.153q-3.131,0-6.206-.237A79.733,79.733,0,0,1,152.4,290.35c-12.932-12.2-21.423-31.536-21.423-48.356a48.9,48.9,0,1,1,97.8,0Z" transform="translate(-90.019 -133.12)" fill="#6ec8e0"/>
  <path id="Path_56" data-name="Path 56" d="M149.893,242c0,17.685,5.757,38.155,14.382,50.18a79.737,79.737,0,0,1-11.875-1.824c-12.932-12.2-21.423-31.536-21.423-48.356a48.9,48.9,0,0,1,48.512-48.9C163.111,193.444,149.893,215.208,149.893,242Z" transform="translate(-90.018 -133.128)" fill="#4cadc9"/>
  <g id="Group_17" data-name="Group 17" transform="translate(101.794 72.512)">
    <ellipse id="Ellipse_4" data-name="Ellipse 4" cx="10.239" cy="10.239" rx="10.239" ry="10.239" transform="translate(3.248 12.679)" fill="#a3deef"/>
    <ellipse id="Ellipse_5" data-name="Ellipse 5" cx="5.12" cy="5.12" rx="5.12" ry="5.12" fill="#a3deef"/>
  </g>
  <g id="Group_18" data-name="Group 18" transform="translate(59.477 109.201)">
    <path id="Path_57" data-name="Path 57" d="M200.145,366.478c0-4.4-9.417-3.051-9.417-10,0-4.371,3.755-5.867,7.129-5.867,1.731,0,5.574.411,5.574,2.347,0,.674-.469,2.024-1.526,2.024-.91,0-1.584-1.115-4.049-1.115-2.112,0-3.315.851-3.315,2.259,0,3.638,9.417,2.376,9.417,9.975,0,4.2-2.934,6.366-6.982,6.366-3.843,0-6.777-1.937-6.777-3.638,0-.822.763-2.054,1.672-2.054,1.2,0,2,2.259,4.987,2.259C198.62,369.03,200.145,368.238,200.145,366.478Z" transform="translate(-190.2 -350.577)" fill="#4cadc9"/>
    <path id="Path_58" data-name="Path 58" d="M237.766,370.55a1.683,1.683,0,0,1,.058-.294l5.662-18.453a2.384,2.384,0,0,1,2.435-1.291c1.115,0,2.2.411,2.464,1.291l5.662,18.453a1.273,1.273,0,0,1,.059.293c0,.91-1.379,1.584-2.406,1.584-.645,0-1.144-.205-1.291-.763l-1.115-3.9h-6.718l-1.115,3.9c-.147.558-.646.763-1.291.763C239.145,372.134,237.766,371.488,237.766,370.55Zm10.708-6.073-2.553-9.006-2.552,9.006Z" transform="translate(-222.892 -350.512)" fill="#4cadc9"/>
    <path id="Path_59" data-name="Path 59" d="M298.169,372.522c-.851,0-1.672-.411-1.672-1.2V352.25c0-.822.939-1.173,1.907-1.173.938,0,1.907.352,1.907,1.174v16.927h7.158c.763,0,1.144.821,1.144,1.672,0,.822-.381,1.672-1.144,1.672Z" transform="translate(-263.257 -350.9)" fill="#4cadc9"/>
    <path id="Path_60" data-name="Path 60" d="M345.719,360.288h4.46c.763,0,1.2.733,1.2,1.526a1.328,1.328,0,0,1-1.2,1.467h-4.46v5.9h8.3c.763,0,1.2.792,1.2,1.7,0,.792-.381,1.643-1.2,1.643H343.577c-.851,0-1.672-.411-1.672-1.2V352.28c0-.792.821-1.2,1.672-1.2h10.444c.822,0,1.2.851,1.2,1.643,0,.909-.44,1.7-1.2,1.7h-8.3Z" transform="translate(-294.465 -350.9)" fill="#4cadc9"/>
  </g>
  <path id="Path_61" data-name="Path 61" d="M97.8,50.2c0,27.006-21.893,60.51-48.9,60.51S0,77.211,0,50.2a48.9,48.9,0,0,1,97.8,0Z" transform="translate(0 -1.306)" fill="#f9435c"/>
  <path id="Path_62" data-name="Path 62" d="M48.9,110.723c-27,0-48.9-33.506-48.9-60.511a48.9,48.9,0,0,1,48.512-48.9c-16.378.338-29.6,22.1-29.6,48.9C18.917,77.217,32.343,110.723,48.9,110.723Z" transform="translate(0 -1.313)" fill="#d31c36"/>
  <path id="Path_63" data-name="Path 63" d="M137.838,356.476H126.153a5.248,5.248,0,0,1-5.248-5.248h0a5.248,5.248,0,0,1,5.248-5.248h11.685a5.248,5.248,0,0,1,5.248,5.248h0A5.248,5.248,0,0,1,137.838,356.476Z" transform="translate(-83.097 -238.197)" fill="#f9435c"/>
  <path id="Path_64" data-name="Path 64" d="M127.408,351.228h0a5.248,5.248,0,0,1,5.248-5.248h-6.5a5.248,5.248,0,0,0-5.248,5.248h0a5.248,5.248,0,0,0,5.248,5.248h6.5A5.248,5.248,0,0,1,127.408,351.228Z" transform="translate(-83.097 -238.197)" fill="#d31c36"/>
  <g id="Group_19" data-name="Group 19" transform="translate(51.864 12.537)">
    <ellipse id="Ellipse_6" data-name="Ellipse 6" cx="10.239" cy="10.239" rx="10.239" ry="10.239" transform="translate(12.221 12.679)" fill="#ff8693"/>
    <ellipse id="Ellipse_7" data-name="Ellipse 7" cx="5.12" cy="5.12" rx="5.12" ry="5.12" transform="translate(8.969)" fill="#ff8693"/>
    <ellipse id="Ellipse_8" data-name="Ellipse 8" cx="2.276" cy="2.276" rx="2.276" ry="2.276" transform="translate(0 98.256)" fill="#ff8693"/>
  </g>
  <path id="Path_65" data-name="Path 65" d="M81.12,109.821v-9.272c0-6.011,3.965-8.249,9.144-8.249,5.116,0,9.08,2.238,9.08,8.249v9.272c0,6.011-3.965,8.249-9.08,8.249C85.084,118.07,81.12,115.832,81.12,109.821Zm12.789-9.272c0-2.366-1.407-3.453-3.645-3.453s-3.581,1.087-3.581,3.453v9.272c0,2.366,1.343,3.453,3.581,3.453s3.645-1.087,3.645-3.453Zm25.323-7.929a2.511,2.511,0,0,1-.255,1.151L95.955,140.2a2.635,2.635,0,0,1-2.494,1.407,2.967,2.967,0,0,1-3.005-2.813,3.013,3.013,0,0,1,.256-1.087l23.02-46.616a2.489,2.489,0,0,1,2.3-1.343A3.145,3.145,0,0,1,119.231,92.62Zm-9.272,38.367v-9.272c0-6.011,3.965-8.249,9.144-8.249,5.116,0,9.08,2.238,9.08,8.249v9.272c0,6.075-3.965,8.249-9.08,8.249C113.924,139.236,109.959,137.062,109.959,130.987Zm12.789-9.272c0-2.366-1.407-3.453-3.645-3.453s-3.581,1.087-3.581,3.453v9.272c0,2.366,1.343,3.453,3.581,3.453s3.645-1.087,3.645-3.453Z" transform="translate(-55.753 -62.088)" fill="#d31c36"/>
</svg>
