<svg xmlns="http://www.w3.org/2000/svg" width="126.961" height="103.409" viewBox="0 0 126.961 103.409">
  <g id="brand" transform="translate(0 -47.49)">
    <g id="Group_690" data-name="Group 690" transform="translate(47.163 82.84)">
      <g id="Group_689" data-name="Group 689">
        <path id="Path_4234" data-name="Path 4234" d="M222.739,201.838a1.859,1.859,0,0,0-1.5-1.266l-9.022-1.311-4.035-8.175a1.86,1.86,0,0,0-3.336,0l-4.035,8.175-9.022,1.311a1.86,1.86,0,0,0-1.031,3.172l6.529,6.363-1.541,8.986a1.86,1.86,0,0,0,2.7,1.96l8.07-4.242,8.069,4.242a1.86,1.86,0,0,0,2.7-1.961l-1.541-8.986,6.529-6.363A1.86,1.86,0,0,0,222.739,201.838Zm-10.3,6.289a1.859,1.859,0,0,0-.535,1.646l1.069,6.235-5.6-2.944a1.861,1.861,0,0,0-1.731,0l-5.6,2.944,1.07-6.235a1.86,1.86,0,0,0-.535-1.646l-4.53-4.416,6.26-.91a1.859,1.859,0,0,0,1.4-1.017l2.8-5.673,2.8,5.673a1.86,1.86,0,0,0,1.4,1.017l6.26.91Z" transform="translate(-190.196 -190.049)" fill="#ffc72d"/>
      </g>
    </g>
    <g id="Group_692" data-name="Group 692" transform="translate(89.243 83.938)">
      <g id="Group_691" data-name="Group 691">
        <path id="Path_4235" data-name="Path 4235" d="M380.112,201.786a1.859,1.859,0,0,0-1.5-1.266l-4.764-.692-2.131-4.317a1.86,1.86,0,0,0-3.336,0l-2.131,4.317-4.764.692a1.86,1.86,0,0,0-1.031,3.172l3.448,3.36-.814,4.745a1.86,1.86,0,0,0,2.7,1.961l4.261-2.24,4.261,2.24a1.86,1.86,0,0,0,2.7-1.96l-.814-4.745,3.447-3.361A1.86,1.86,0,0,0,380.112,201.786Zm-7.214,3.286a1.859,1.859,0,0,0-.535,1.646l.342,1.994-1.791-.942a1.861,1.861,0,0,0-1.731,0l-1.791.942.342-1.994a1.859,1.859,0,0,0-.535-1.646l-1.449-1.413,2-.291a1.859,1.859,0,0,0,1.4-1.017l.9-1.815.9,1.815a1.86,1.86,0,0,0,1.4,1.017l2,.291Z" transform="translate(-359.893 -194.474)" fill="#ffc72d"/>
      </g>
    </g>
    <g id="Group_694" data-name="Group 694" transform="translate(17.407 93.464)">
      <g id="Group_693" data-name="Group 693">
        <path id="Path_4236" data-name="Path 4236" d="M90.417,240.2a1.858,1.858,0,0,0-1.5-1.265l-4.764-.692-2.131-4.317a1.86,1.86,0,0,0-3.336,0l-2.131,4.317-4.764.692a1.86,1.86,0,0,0-1.031,3.172l3.447,3.36-.814,4.745a1.86,1.86,0,0,0,2.7,1.96l4.261-2.24,4.261,2.24a1.86,1.86,0,0,0,2.7-1.961l-.814-4.745,3.447-3.36A1.86,1.86,0,0,0,90.417,240.2ZM83.2,243.488a1.859,1.859,0,0,0-.535,1.646l.342,1.995-1.791-.942a1.861,1.861,0,0,0-1.731,0l-1.791.942.342-1.995a1.859,1.859,0,0,0-.535-1.646l-1.449-1.412,2-.291a1.859,1.859,0,0,0,1.4-1.017l.9-1.815.9,1.815a1.86,1.86,0,0,0,1.4,1.017l2,.291Z" transform="translate(-70.199 -232.89)" fill="#ffc72d"/>
      </g>
    </g>
    <g id="Group_696" data-name="Group 696" transform="translate(0 47.49)">
      <g id="Group_695" data-name="Group 695">
        <path id="Path_4237" data-name="Path 4237" d="M126.338,69.77a1.859,1.859,0,0,0-1.451-.459L107.07,71.377A51.861,51.861,0,0,0,97.028,59.848a1.86,1.86,0,1,0-2.415,2.828,48.122,48.122,0,0,1,8.3,9.183l-6.383.74A42.82,42.82,0,0,0,82.581,61.308a41.977,41.977,0,0,0-19.1-4.534A42.506,42.506,0,0,0,25.214,80.868l-6.393.741A48.014,48.014,0,0,1,88.635,58.322a1.86,1.86,0,0,0,1.953-3.165A51.728,51.728,0,0,0,14.674,82.09L1.646,83.6A1.861,1.861,0,0,0,0,85.448v41.782a1.86,1.86,0,0,0,1.86,1.86,1.888,1.888,0,0,0,.214-.012l17.821-2.066A51.652,51.652,0,0,0,63.48,150.9a51.723,51.723,0,0,0,48.806-34.6l13.029-1.511a1.86,1.86,0,0,0,1.646-1.847V71.158A1.86,1.86,0,0,0,126.338,69.77ZM63.48,147.179a47.626,47.626,0,0,1-39.432-20.65l6.383-.74A42.835,42.835,0,0,0,44.38,137.081a42.507,42.507,0,0,0,37.421.383,1.86,1.86,0,0,0-1.609-3.354,38.74,38.74,0,0,1-45.312-8.837l62.408-7.236a38.925,38.925,0,0,1-10.752,12.245,1.86,1.86,0,1,0,2.218,2.986,42.629,42.629,0,0,0,12.989-15.747l6.4-.742A47.85,47.85,0,0,1,63.48,147.179Zm59.761-35.9L3.72,125.142V87.1l33.229-3.853a1.86,1.86,0,1,0-.428-3.695l-6.841.793a38.7,38.7,0,0,1,62.395-7.235L44.32,78.652a1.86,1.86,0,0,0,.428,3.695l78.493-9.1Z" transform="translate(0 -47.49)" fill="#ffc72d"/>
      </g>
    </g>
    <g id="Group_698" data-name="Group 698" transform="translate(56.7 64.27)">
      <g id="Group_697" data-name="Group 697">
        <path id="Path_4238" data-name="Path 4238" d="M240.357,115.158h-9.841a1.86,1.86,0,1,0,0,3.72h9.841a1.86,1.86,0,1,0,0-3.72Z" transform="translate(-228.656 -115.158)" fill="#ffc72d"/>
      </g>
    </g>
    <g id="Group_700" data-name="Group 700" transform="translate(51.702 69.872)">
      <g id="Group_699" data-name="Group 699">
        <path id="Path_4239" data-name="Path 4239" d="M230.2,137.75H210.36a1.86,1.86,0,0,0,0,3.72H230.2a1.86,1.86,0,0,0,0-3.72Z" transform="translate(-208.5 -137.75)" fill="#ffc72d"/>
      </g>
    </g>
    <g id="Group_702" data-name="Group 702" transform="translate(56.7 130.914)">
      <g id="Group_701" data-name="Group 701">
        <path id="Path_4240" data-name="Path 4240" d="M240.357,383.918h-9.841a1.86,1.86,0,1,0,0,3.72h9.841a1.86,1.86,0,1,0,0-3.72Z" transform="translate(-228.656 -383.918)" fill="#ffc72d"/>
      </g>
    </g>
    <g id="Group_704" data-name="Group 704" transform="translate(51.702 125.312)">
      <g id="Group_703" data-name="Group 703">
        <path id="Path_4241" data-name="Path 4241" d="M230.2,361.326H210.36a1.86,1.86,0,0,0,0,3.72H230.2a1.86,1.86,0,0,0,0-3.72Z" transform="translate(-208.5 -361.326)" fill="#ffc72d"/>
      </g>
    </g>
  </g>
</svg>
