<svg id="car_1_" data-name="car (1)" xmlns="http://www.w3.org/2000/svg" width="109.04" height="86.323" viewBox="0 0 109.04 86.323">
  <g id="Group_470" data-name="Group 470" transform="translate(2.272 45.433)">
    <g id="Group_469" data-name="Group 469">
      <path id="Path_3616" data-name="Path 3616" d="M39.534,280.96,28.567,269.993a11.294,11.294,0,0,0-8.033-3.326h-7.6a2.272,2.272,0,1,0,0,4.543h7.6A6.863,6.863,0,0,1,25.35,273.2l7.092,7.092h-19.5a2.272,2.272,0,1,0,0,4.543H37.926a2.274,2.274,0,0,0,1.609-3.88Z" transform="translate(-10.666 -266.667)" fill="#5fd6cd"/>
    </g>
  </g>
  <g id="Group_472" data-name="Group 472" transform="translate(4.543 68.15)">
    <g id="Group_471" data-name="Group 471">
      <path id="Path_3617" data-name="Path 3617" d="M46.321,375.6a2.273,2.273,0,0,0-2.272,2.272v6.815a2.275,2.275,0,0,1-2.272,2.272H28.148a2.275,2.275,0,0,1-2.272-2.272V375.6a2.272,2.272,0,1,0-4.543,0v9.087a6.823,6.823,0,0,0,6.815,6.815h13.63a6.823,6.823,0,0,0,6.815-6.815v-6.815A2.272,2.272,0,0,0,46.321,375.6Z" transform="translate(-21.333 -373.333)" fill="#5fd6cd"/>
    </g>
  </g>
  <g id="Group_474" data-name="Group 474" transform="translate(0 27.26)">
    <g id="Group_473" data-name="Group 473">
      <path id="Path_3618" data-name="Path 3618" d="M98.731,186.136c-6.261-3.276-20.313-4.8-44.211-4.8s-37.95,1.527-44.211,4.8C3.176,189.862,0,196.086,0,206.322a80.921,80.921,0,0,0,2.349,18.759,2.266,2.266,0,0,0,2.194,1.686H24.452l8.6,4.3a2.279,2.279,0,0,0,1.018.241h40.89a2.246,2.246,0,0,0,1.013-.241l8.61-4.3H104.5a2.266,2.266,0,0,0,2.194-1.686,80.92,80.92,0,0,0,2.349-18.759C109.04,196.086,105.864,189.862,98.731,186.136Zm3.971,36.087H84.056a2.251,2.251,0,0,0-1.018.241l-8.61,4.3H34.611l-8.6-4.3a2.279,2.279,0,0,0-1.018-.241H6.342a78.117,78.117,0,0,1-1.8-15.9c0-8.555,2.281-13.239,7.864-16.161,5.443-2.844,19.609-4.284,42.112-4.284s36.669,1.44,42.112,4.284c5.584,2.921,7.864,7.606,7.864,16.161A78.516,78.516,0,0,1,102.7,222.224Z" transform="translate(0 -181.334)" fill="#5fd6cd"/>
    </g>
  </g>
  <g id="Group_476" data-name="Group 476" transform="translate(77.238 45.433)">
    <g id="Group_475" data-name="Group 475">
      <path id="Path_3619" data-name="Path 3619" d="M389.931,280.3h-19.5l7.088-7.092a6.873,6.873,0,0,1,4.82-1.994h7.6a2.272,2.272,0,1,0,0-4.543h-7.6a11.293,11.293,0,0,0-8.032,3.326L363.334,280.96a2.274,2.274,0,0,0,1.608,3.88h24.988a2.272,2.272,0,1,0,0-4.544Z" transform="translate(-362.672 -266.667)" fill="#5fd6cd"/>
    </g>
  </g>
  <g id="Group_478" data-name="Group 478" transform="translate(27.259 45.433)">
    <g id="Group_477" data-name="Group 477">
      <path id="Path_3620" data-name="Path 3620" d="M182.3,267.975a2.274,2.274,0,0,0-2.058-1.308H130.269a2.271,2.271,0,0,0-1.745,3.725l11.358,13.63a2.274,2.274,0,0,0,1.745.818h27.26a2.274,2.274,0,0,0,1.745-.818l11.358-13.63A2.266,2.266,0,0,0,182.3,267.975ZM167.819,280.3H142.69l-7.574-9.087h40.277Z" transform="translate(-127.996 -266.667)" fill="#5fd6cd"/>
    </g>
  </g>
  <g id="Group_480" data-name="Group 480" transform="translate(9.087 0)">
    <g id="Group_479" data-name="Group 479">
      <path id="Path_3621" data-name="Path 3621" d="M133.348,86.5c-2.585-5.943-11.236-25.529-14.243-28.087-3.748-3.185-14.484-5.084-28.732-5.084H85.83c-14.248,0-24.984,1.9-28.732,5.079C54.09,60.97,45.435,80.557,42.854,86.5a2.274,2.274,0,0,0,4.171,1.813c5.129-11.808,11.4-24.929,13.017-26.433,1.749-1.486,9.15-4,25.788-4h4.543c16.638,0,24.039,2.517,25.779,3.994,1.622,1.513,7.9,14.629,13.026,26.442a2.273,2.273,0,0,0,4.171-1.808Z" transform="translate(-42.668 -53.333)" fill="#5fd6cd"/>
    </g>
  </g>
  <g id="Group_482" data-name="Group 482" transform="translate(77.236 68.15)">
    <g id="Group_481" data-name="Group 481">
      <path id="Path_3622" data-name="Path 3622" d="M387.654,373.333a2.273,2.273,0,0,0-2.272,2.272v9.087a2.275,2.275,0,0,1-2.272,2.272H369.48a2.275,2.275,0,0,1-2.272-2.272v-6.815a2.272,2.272,0,1,0-4.543,0v6.815a6.823,6.823,0,0,0,6.815,6.815h13.63a6.823,6.823,0,0,0,6.815-6.815V375.6A2.272,2.272,0,0,0,387.654,373.333Z" transform="translate(-362.665 -373.333)" fill="#5fd6cd"/>
    </g>
  </g>
</svg>
