<svg id="diamond" xmlns="http://www.w3.org/2000/svg" width="160.826" height="159.108" viewBox="0 0 160.826 159.108">
  <path id="Path_66" data-name="Path 66" d="M161.847,82.289A79.439,79.439,0,0,1,86.67,161.723q-.74.044-1.481.068-1.442.054-2.9.052c-.682,0-1.364-.01-2.039-.026-.828-.019-1.649-.055-2.471-.1A79.626,79.626,0,0,1,5.025,63.28q.857-3.507,2.026-6.894a79.587,79.587,0,0,1,150.523.11q1.14,3.326,1.987,6.78A79.738,79.738,0,0,1,161.847,82.289Z" transform="translate(-1.879 -2.735)" fill="#154244"/>
  <path id="Path_67" data-name="Path 67" d="M78.375,258.854c-.828-.019-1.649-.055-2.471-.1a79.164,79.164,0,0,1-8.478-.929L3.146,160.318,0,155.544l5.173-2.12,22.486-9.212,23.486,11.332,20.239,39.033Z" transform="translate(0 -99.772)" fill="#6ec8e0"/>
  <path id="Path_68" data-name="Path 68" d="M342.74,158.642l-3.143,4.77-64.283,97.51a79.029,79.029,0,0,1-8.608.935q-.74.044-1.481.068l10.547-67.949,15.06-35.335,26.62-9.913,20.158,7.9,5.127,2.01Z" transform="translate(-181.914 -102.87)" fill="#4cadc9"/>
  <path id="Path_69" data-name="Path 69" d="M138.152,38.334v0l-5.378,31.834L109.266,82.924,86.6,66.861l-1.86-28.522v0Z" transform="translate(-58.123 -27.152)" fill="#6ec8e0"/>
  <path id="Path_70" data-name="Path 70" d="M308.953,38.334v0l-6.431,28.048L283.667,82.924,261.659,62.6l-6.881-24.263v0Z" transform="translate(-174.749 -27.152)" fill="#4cadc9"/>
  <path id="Path_71" data-name="Path 71" d="M220.6,150.375,196.47,253.591q-.74.044-1.481.068-1.442.054-2.9.052c-.682,0-1.364-.01-2.039-.026-.828-.019-1.649-.055-2.471-.1L162.823,150.375l30.045-13.7Z" transform="translate(-111.678 -94.603)" fill="#47c2ea"/>
  <path id="Path_72" data-name="Path 72" d="M26.62,38.349,51.145,82.934H0Z" transform="translate(-0.001 -27.162)" fill="#4cadc9"/>
  <g id="Group_20" data-name="Group 20" transform="translate(51.144 11.182)">
    <path id="Path_73" data-name="Path 73" d="M372.039,38.334l26.618,44.59H346.749l25.286-44.585v0Z" transform="translate(-288.974 -38.334)" fill="#a3deef"/>
    <path id="Path_74" data-name="Path 74" d="M191.7,38.349l28.889,44.585H162.819Z" transform="translate(-162.819 -38.344)" fill="#a3deef"/>
  </g>
  <path id="Path_75" data-name="Path 75" d="M331.895,315.569a7.129,7.129,0,0,0,.568,2.539,79.732,79.732,0,0,1-33.825,28.519c-1.517-1.422-2.978-3.046-4.575-3.565-3.147-1.023-8.111,1.471-10.729-.435-2.643-1.922-1.8-7.429-3.721-10.072-1.906-2.617-7.413-3.5-8.433-6.647-.987-3.036,2.916-6.975,2.916-10.339s-3.9-7.3-2.916-10.339c1.02-3.143,6.527-4.03,8.433-6.647,1.922-2.643,1.078-8.15,3.721-10.072,2.617-1.906,7.582.588,10.729-.435,3.033-.984,5.569-5.952,8.933-5.952s5.9,4.968,8.933,5.952c3.147,1.023,8.111-1.471,10.729.435,2.643,1.922,1.8,7.429,3.721,10.072,1.906,2.617,7.413,3.5,8.433,6.647C335.8,308.266,331.895,312.2,331.895,315.569Z" transform="translate(-185.889 -194.364)" fill="#ffde51"/>
  <path id="Path_76" data-name="Path 76" d="M324.971,348.7v-5.922c0-3.839,2.532-5.268,5.84-5.268,3.267,0,5.8,1.429,5.8,5.268V348.7c0,3.839-2.532,5.268-5.8,5.268C327.5,353.967,324.971,352.538,324.971,348.7Zm8.168-5.922a2.038,2.038,0,0,0-2.328-2.205,2.008,2.008,0,0,0-2.287,2.205V348.7a2.008,2.008,0,0,0,2.287,2.205,2.038,2.038,0,0,0,2.328-2.205Zm16.172-5.064a1.6,1.6,0,0,1-.163.735l-14.7,29.649a1.683,1.683,0,0,1-1.593.9,1.9,1.9,0,0,1-1.919-1.8,1.924,1.924,0,0,1,.163-.694l14.7-29.772a1.59,1.59,0,0,1,1.47-.858A2.009,2.009,0,0,1,349.311,337.713Zm-5.921,24.5V356.3c0-3.839,2.532-5.268,5.84-5.268,3.267,0,5.8,1.43,5.8,5.268v5.921c0,3.88-2.532,5.268-5.8,5.268C345.921,367.485,343.389,366.1,343.389,362.217Zm8.168-5.922a2.038,2.038,0,0,0-2.328-2.205,2.008,2.008,0,0,0-2.287,2.205v5.921a2.008,2.008,0,0,0,2.287,2.205,2.038,2.038,0,0,0,2.328-2.205Z" transform="translate(-222.893 -231.231)" fill="#f9435c"/>
</svg>
