<svg id="fast-food" xmlns="http://www.w3.org/2000/svg" width="102.002" height="101.99" viewBox="0 0 102.002 101.99">
  <g id="Group_483" data-name="Group 483" transform="translate(0 0)">
    <path id="Union_2" data-name="Union 2" d="M17.855,101.99a5.662,5.662,0,0,1-5.492-5.235L3.783,33.8A4.47,4.47,0,0,1,0,29.391V26.006a4.473,4.473,0,0,1,4.463-4.473H32.068V9.354a5.3,5.3,0,0,1,4.007-5.191L51.393.171A5.463,5.463,0,0,1,52.738,0a5.361,5.361,0,0,1,1.367,10.548L42.786,13.5v8.041H68.135A4.471,4.471,0,0,1,72.6,26.006v3.385a4.423,4.423,0,0,1-1.245,3.086A4.469,4.469,0,0,1,68.817,33.8l-.683,4.988h.143c8.7,0,16.842,2.252,22.92,6.339C98.266,49.879,102,56.681,102,64.8v2.021a4.366,4.366,0,0,1-3.744,4.315l0,.042h-.9a11.5,11.5,0,0,1-.453,1.86,6.588,6.588,0,0,1,2.8,2.117,6.453,6.453,0,0,1,1.339,3.961,6.567,6.567,0,0,1-4.36,6.168v3.038h2.211a3.106,3.106,0,0,1,3.108,3.1v3.736a6.845,6.845,0,0,1-6.838,6.838Zm20.8-6.838a2.73,2.73,0,0,0,2.731,2.732H95.164A2.734,2.734,0,0,0,97.9,95.152V92.421H73.911a2.051,2.051,0,1,1,0-4.1H92.578V85.654h-48.6v2.665H66.957a2.051,2.051,0,1,1,0,4.1h-28.3ZM15.776,91.4l.654,4.8c.083.628.479,1.683,1.425,1.683h17.27a6.755,6.755,0,0,1-.574-2.732V91.417a3.106,3.106,0,0,1,3.106-3.1h2.214V85.28a6.55,6.55,0,0,1-2.314-1.422Zm-3.5-25.713,2.937,21.566L35.6,80.193a6.743,6.743,0,0,1-.091-1.081,6.462,6.462,0,0,1,1.342-3.961,6.6,6.6,0,0,1,2.8-2.117,11.071,11.071,0,0,1-.449-1.86h-.29a4.36,4.36,0,0,1-4.357-4.357V64.8a23.769,23.769,0,0,1,1-6.912ZM39.614,79.112a2.435,2.435,0,0,0,2.429,2.436H94.512a2.434,2.434,0,0,0,.109-4.866A8.059,8.059,0,0,1,92.352,78.2a8.669,8.669,0,0,1-3.559.746,9.14,9.14,0,0,1-5.071-1.538,8.306,8.306,0,0,1-5.19,1.885,7.971,7.971,0,0,1-2.922-.556A8.658,8.658,0,0,1,73.4,77.461a8.208,8.208,0,0,1-5.123,1.824,7.976,7.976,0,0,1-2.913-.553,8.719,8.719,0,0,1-2.211-1.274,8.645,8.645,0,0,1-2.211,1.278,7.952,7.952,0,0,1-2.918.556,8.324,8.324,0,0,1-5.194-1.885,9.121,9.121,0,0,1-5.071,1.538,8.644,8.644,0,0,1-3.561-.75,8.112,8.112,0,0,1-2.262-1.512A2.434,2.434,0,0,0,39.614,79.112Zm35.652-5.5a1.014,1.014,0,0,1,.11.109,4.121,4.121,0,0,0,6.3,0,2.709,2.709,0,0,1,1.94-.933A2.851,2.851,0,0,1,85.5,73.6l0,0a5,5,0,0,0,3.3,1.232,4.654,4.654,0,0,0,1.872-.386,4.522,4.522,0,0,0,2.5-3.276h-49.8a4.515,4.515,0,0,0,2.493,3.276,4.684,4.684,0,0,0,1.877.386,5,5,0,0,0,3.292-1.222,2.848,2.848,0,0,1,1.894-.83,2.7,2.7,0,0,1,1.934.93,4.114,4.114,0,0,0,6.3.006c.035-.039.078-.077.12-.116a2.854,2.854,0,0,1,1.894-.83,2.7,2.7,0,0,1,1.945.946,4.37,4.37,0,0,0,3.143,1.461,4.312,4.312,0,0,0,3.153-1.467,2.7,2.7,0,0,1,1.937-.939A2.841,2.841,0,0,1,75.265,73.613ZM47.647,48.534c-4.1,2.758-8.989,7.816-8.989,16.262v2.021a.249.249,0,0,0,.241.251H97.645a.251.251,0,0,0,.252-.251V64.8c0-8.447-4.891-13.5-8.991-16.262C83.5,44.9,76.17,42.893,68.277,42.893S53.057,44.9,47.647,48.534ZM11.513,64.372a.258.258,0,0,0-.014-.087Zm.2-2.819L37.84,52.788a25.088,25.088,0,0,1,7.517-7.662,34.955,34.955,0,0,1,8.778-4.193,44.643,44.643,0,0,1,9.833-1.957l.7-5.123H41.1a2.053,2.053,0,0,1,0-4.106H68.135a.372.372,0,0,0,.361-.357V26.006a.376.376,0,0,0-.361-.367H4.463a.379.379,0,0,0-.36.367v3.385a.375.375,0,0,0,.36.357H34.079a2.053,2.053,0,0,1,0,4.106H7.934ZM52.427,4.145,37.109,8.138a1.215,1.215,0,0,0-.939,1.217V21.533h2.514V11.909A2.053,2.053,0,0,1,40.218,9.92L53.066,6.577A1.257,1.257,0,0,0,52.741,4.1,1.3,1.3,0,0,0,52.427,4.145ZM90.054,63.2A2.057,2.057,0,0,1,91.5,59.686a2.035,2.035,0,0,1,1.445.6l.009.013a2.052,2.052,0,1,1-2.9,2.9Zm-9.283.007a2.054,2.054,0,1,1,2.88-2.928l.006.009a2.052,2.052,0,1,1-2.886,2.919Zm-9.3-.007a2.057,2.057,0,0,1,1.448-3.514,2.033,2.033,0,0,1,1.445.6l.013.013a2.054,2.054,0,0,1-2.906,2.9Zm-9.289,0a2.06,2.06,0,0,1,0-2.909,2.041,2.041,0,0,1,2.9-.006l.014.013a2.054,2.054,0,0,1-2.906,2.9Zm-9.291,0a2.057,2.057,0,0,1,1.448-3.514,2.031,2.031,0,0,1,1.446.6l.012.013A2.054,2.054,0,0,1,52.9,63.2Zm-9.289,0a2.057,2.057,0,0,1,1.448-3.514,2.011,2.011,0,0,1,1.441.6l.017.013a2.054,2.054,0,0,1-2.906,2.9Zm41.551-7.372-.009-.019a2.051,2.051,0,0,1,3.41-2.278l.013.013a2.054,2.054,0,1,1-3.414,2.285Zm-9.035.312-.016-.019a2.053,2.053,0,0,1,2.9-2.9l.016.02a2.052,2.052,0,1,1-2.9,2.9Zm-9.307-.019a2.055,2.055,0,0,1,1.448-3.511,2.031,2.031,0,0,1,1.445.6l.012.013a2.052,2.052,0,0,1,0,2.9,2.052,2.052,0,0,1-2.9,0Zm-9.289,0a2.055,2.055,0,0,1,1.448-3.511,2.014,2.014,0,0,1,1.441.6l.016.013a2.052,2.052,0,0,1-2.905,2.9Zm-9.56-.328-.009-.016a2.05,2.05,0,0,1,1.708-3.186,2.048,2.048,0,0,1,1.712.917l.01.016a2.052,2.052,0,1,1-3.42,2.268Zm23.788-6.464a2.054,2.054,0,0,1-.549-2.851l.008-.016a2.053,2.053,0,1,1,3.4,2.3l-.008.016a2.062,2.062,0,0,1-1.707.9A2.036,2.036,0,0,1,71.755,49.329Zm-9.283,0a2.055,2.055,0,0,1-.563-2.848l.014-.016a2.043,2.043,0,0,1,1.7-.911,2.074,2.074,0,0,1,1.143.347,2.06,2.06,0,0,1,.56,2.851l-.014.016a2.042,2.042,0,0,1-2.844.56Z" transform="translate(0 0)" fill="#a65cc1"/>
  </g>
</svg>
