<svg xmlns="http://www.w3.org/2000/svg" width="71.333" height="71.206" viewBox="0 0 71.333 71.206">
  <g id="hamburger" transform="translate(0 14.244) rotate(-14)">
    <g id="Group_426" data-name="Group 426" transform="translate(0 0)">
      <path id="Path_3420" data-name="Path 3420" d="M180.2,61.418a.862.862,0,0,0,.759-.453l.748-1.384a.862.862,0,1,0-1.517-.82l-.748,1.384a.863.863,0,0,0,.758,1.272Z" transform="translate(-158.711 -51.691)" fill="#f9435c"/>
      <path id="Path_3421" data-name="Path 3421" d="M250.137,59.923V58.35a.862.862,0,1,0-1.725,0v1.573a.862.862,0,1,0,1.725,0Z" transform="translate(-219.845 -50.964)" fill="#f9435c"/>
      <path id="Path_3422" data-name="Path 3422" d="M312.458,61.5a.862.862,0,0,0,.745-1.3l-.789-1.361a.862.862,0,0,0-1.492.865l.789,1.361A.862.862,0,0,0,312.458,61.5Z" transform="translate(-275.063 -51.78)" fill="#f9435c"/>
      <path id="Path_3423" data-name="Path 3423" d="M58.88,27.3v-.76a4.718,4.718,0,0,0-2.046-3.887A4.1,4.1,0,0,0,58.125,18.1a24.273,24.273,0,0,0-7.808-10.95C45.111,3.033,38.091.881,29.452.756h-.025a43.154,43.154,0,0,0-10.75,1.42.862.862,0,0,0,.456,1.663A41.425,41.425,0,0,1,29.44,2.481C48.094,2.756,54.4,12.746,56.5,18.677a2.352,2.352,0,0,1-2.21,3.146H4.591a2.33,2.33,0,0,1-1.924-1,2.3,2.3,0,0,1-.3-2.115A22.674,22.674,0,0,1,15.458,5.1a.862.862,0,0,0-.667-1.59,25.3,25.3,0,0,0-9.745,7.057,24.287,24.287,0,0,0-4.3,7.572,4,4,0,0,0,.518,3.684,4.071,4.071,0,0,0,.788.832A4.718,4.718,0,0,0,0,26.544v.76a4.729,4.729,0,0,0,3.768,4.624l-.017,5.149A4.728,4.728,0,0,0,0,41.7v.76A4.729,4.729,0,0,0,3.765,47.08a11.065,11.065,0,0,0,.5,4.019c1.41,4.416,5.229,6.519,8.185,7.506a17.053,17.053,0,0,0,5.41.857h23.17a17.052,17.052,0,0,0,5.41-.857c2.956-.987,6.775-3.09,8.185-7.506a11.065,11.065,0,0,0,.5-4.019,4.729,4.729,0,0,0,3.765-4.623V41.7a4.727,4.727,0,0,0-3.768-4.622V31.928A4.729,4.729,0,0,0,58.88,27.3ZM1.725,42.457V41.7a3,3,0,0,1,2.021-2.83l0,.508A3.137,3.137,0,0,0,8.88,41.789a2.794,2.794,0,0,1,1.931-.7c.1,0,.193,0,.284.01v4.36H4.721a3,3,0,0,1-3-3Zm34.361-6.745h17.3v3.663a1.376,1.376,0,0,1-.8,1.272,1.4,1.4,0,0,1-1.513-.19,4.484,4.484,0,0,0-3.027-1.1,5.249,5.249,0,0,0-3.638,1.415,3.683,3.683,0,0,1-5.135,0,5.25,5.25,0,0,0-3.638-1.415,5.314,5.314,0,0,0-3.638,1.415,3.682,3.682,0,0,1-5.134,0,5.314,5.314,0,0,0-3.638-1.415,5.249,5.249,0,0,0-3.638,1.415,4.213,4.213,0,0,1-1.638.935V36.854a1.144,1.144,0,0,1,1.142-1.142H32.042a.862.862,0,1,0,0-1.725H19.088a2.87,2.87,0,0,0-2.867,2.867V47.473a1.7,1.7,0,1,1-3.4,0V36.854a2.87,2.87,0,0,0-2.867-2.867H5.493V32.025H53.387v1.963h-17.3a.862.862,0,1,0,0,1.725Zm-26.133,0a1.144,1.144,0,0,1,1.143,1.142v2.512c-.092,0-.186-.007-.284-.007a4.483,4.483,0,0,0-3.026,1.1,1.4,1.4,0,0,1-1.514.19,1.376,1.376,0,0,1-.8-1.272V35.712ZM52.977,50.574c-.955,2.992-3.34,5.143-7.088,6.394a15.328,15.328,0,0,1-4.864.769H17.855a15.328,15.328,0,0,1-4.864-.769c-7.342-2.451-7.65-7.865-7.51-9.791H11.1v.3a3.425,3.425,0,1,0,6.851,0v-.3H53.395A9.315,9.315,0,0,1,52.977,50.574ZM57.155,41.7v.76a3,3,0,0,1-3,3H17.945V43.47a5.479,5.479,0,0,0,2.709-1.343,3.682,3.682,0,0,1,5.134,0,5.314,5.314,0,0,0,3.638,1.415,5.249,5.249,0,0,0,3.638-1.415,3.682,3.682,0,0,1,5.135,0,5.384,5.384,0,0,0,7.276,0,3.609,3.609,0,0,1,2.567-1.042,2.794,2.794,0,0,1,1.932.705,3.137,3.137,0,0,0,5.137-2.414v-.518A3,3,0,0,1,57.155,41.7Zm-3-11.4H4.721a3,3,0,0,1-3-3v-.76a3,3,0,0,1,3-3H54.159a3,3,0,0,1,3,3v.76A3,3,0,0,1,54.159,30.3Z" transform="translate(0 -0.756)" fill="#f9435c"/>
    </g>
  </g>
</svg>
