<svg xmlns="http://www.w3.org/2000/svg" width="101.212" height="101.126" viewBox="0 0 101.212 101.126">
  <g id="insurance" transform="translate(-0.979 -1)">
    <path id="Path_4242" data-name="Path 4242" d="M70.669,42.9c-.2-18.844.921-11.33-8.509-27.644a5.956,5.956,0,0,0-11,3.128c0,1.581.15,1.233,3.627,11.551v5c-7.619-2.332-8.5,7.168-16.346,13.6-8.6,7.05-1.322,12.444-4.244,26.205h-.539A4.218,4.218,0,0,0,29.44,78.95v6.286a4.218,4.218,0,0,0,4.214,4.214H56.487A4.218,4.218,0,0,0,60.7,85.236V78.95a4.217,4.217,0,0,0-3.415-4.133c.189-4.606,2.012-8.426,5.966-12.358,7.033-7.857,7.581-3.486,7.417-19.559ZM33.654,85.236V78.95H56.487l0,6.286ZM60.2,59.559c-4.652,4.622-6.935,9.462-7.145,15.177H38.512c2.745-14.132-3.669-17.805,2.6-22.947,3.073-2.521,6.088-6.609,8.129-9.648,1.759-2.619,2.345-3.284,3.625-3.284a2.441,2.441,0,0,1,2.156,1.322c1.91,3.889-12.357,13.727-7.767,16.689a2.107,2.107,0,0,0,2.911-.629c5.958-9.225,11.07-12.2,8.834-17.487-.046-11.846.8-7.4-2.839-17.775-.788-2.244-.788-2.257-.788-2.593a1.741,1.741,0,0,1,3.17-.97c9.178,15.889,7.731,7.731,7.915,25.529.142,13.917.31,9.256-6.259,16.616Z" transform="translate(31.5 12.676)" fill="#f80"/>
    <path id="Path_4243" data-name="Path 4243" d="M14.283,74.833a4.218,4.218,0,0,0-3.4,4.131v6.286A4.218,4.218,0,0,0,15.1,89.464H37.928a4.218,4.218,0,0,0,4.214-4.214V78.964a4.218,4.218,0,0,0-4.214-4.214H37.39c-2.623-12.464,2.31-15.987-1.011-22.294l-.019.009a12.932,12.932,0,0,0-4-4.543c-1.57-1.057-7.038-8.9-8.26-10.536a6.639,6.639,0,0,0-7.3-2.443V29.957c1.058-5.281,7.334-13.463.261-16.88a5.789,5.789,0,0,0-7.668,2.245C3.967,24.714.98,26.909.98,32.374V52.019c0,7.507,12.768,10.307,13.3,22.814ZM37.93,85.251H15.1V78.964H37.928ZM5.193,32.374c0-3.887,2.684-6,7.82-14.895a1.738,1.738,0,0,1,3.107,1.5c-4.266,12.558-3.626,7.874-3.533,19.792-2.247,5.3,2.869,8.238,8.83,17.487A2.108,2.108,0,0,0,24.96,53.97c-5.8-8.988-9.665-11.194-8.394-13.776a2.437,2.437,0,0,1,1.985-1.315c1.637-.117,2.175,1.009,3.481,2.822,3.2,4.446,6.222,8.534,7.977,9.716,6.5,4.393.537,10.135,3.066,23.334H18.531C18.018,60.969,5.193,56.336,5.193,52.019Z" transform="translate(0 12.662)" fill="#f80"/>
    <path id="Path_4244" data-name="Path 4244" d="M35.828,13.351,27.5,21.661l-3.257-3.251a2.107,2.107,0,1,0-2.975,2.983l4.744,4.735a2.106,2.106,0,0,0,2.975,0L38.8,16.335a2.107,2.107,0,1,0-2.975-2.983Z" transform="translate(21.771 12.989)" fill="#f80"/>
    <path id="Path_4245" data-name="Path 4245" d="M70.68,1.017l-.053.008a2.092,2.092,0,0,0-1.808.589,18.1,18.1,0,0,1-25.5,0,2.272,2.272,0,0,0-3.053,0,18.556,18.556,0,0,1-26.152,0A2.287,2.287,0,0,0,12.553,1a2.106,2.106,0,0,0-2.09,1.843C7.6,25.608,20.33,58.667,41.037,67.174a2.1,2.1,0,0,0,1.609,0c20.638-8.576,33.282-41.623,30.39-64.33A2.113,2.113,0,0,0,70.68,1.017ZM41.834,62.929C24.7,55.189,13.493,27.593,14.326,7.244A22.809,22.809,0,0,0,41.795,5.923a22.345,22.345,0,0,0,27.365.922c1.027,20.34-10.141,48.237-27.326,56.085Z" transform="translate(10.052 0)" fill="#f80"/>
  </g>
</svg>
