<svg xmlns="http://www.w3.org/2000/svg" width="102.728" height="77.046" viewBox="0 0 102.728 77.046">
  <g id="lotus" transform="translate(0 -63.999)">
    <g id="Group_707" data-name="Group 707" transform="translate(0 63.999)">
      <path id="Path_4246" data-name="Path 4246" d="M100.588,89.681a82.081,82.081,0,0,0-11.229.741,57.733,57.733,0,0,0-7.217-21.064A2.137,2.137,0,0,0,79.6,68.39a61.51,61.51,0,0,0-15.96,8.047A60.168,60.168,0,0,0,52.735,64.494a2.145,2.145,0,0,0-2.742,0A60.168,60.168,0,0,0,39.084,76.437a61.494,61.494,0,0,0-15.96-8.047,2.138,2.138,0,0,0-2.537.968,57.741,57.741,0,0,0-7.217,21.064,82.078,82.078,0,0,0-11.229-.74A2.139,2.139,0,0,0,0,91.821c0,15,4.464,26.758,13.648,35.942,8.816,8.814,21.506,13.282,37.716,13.282s28.9-4.468,37.716-13.282c9.184-9.184,13.648-20.94,13.648-35.942A2.139,2.139,0,0,0,100.588,89.681ZM79.282,73.036a52.76,52.76,0,0,1,5.871,18.111,45.139,45.139,0,0,0-13.182,4.833,49.218,49.218,0,0,0-6.012-15.954A56.7,56.7,0,0,1,79.282,73.036Zm-55.837,0a56.723,56.723,0,0,1,13.323,6.991,49.223,49.223,0,0,0-6.012,15.954,45.138,45.138,0,0,0-13.183-4.834A52.762,52.762,0,0,1,23.446,73.036Zm-6.772,51.7C8.661,116.722,4.7,106.909,4.314,93.987c10.855.244,19.114,2.387,25.791,6.618a44.4,44.4,0,0,0-.08,5.854,42.585,42.585,0,0,0,14.738,29.995C32.889,135.411,23.443,131.5,16.674,124.737Zm34.69,11.57c-10.375-7.38-16.419-18.01-17.067-30.079-.719-13.52,5.48-27.011,17.067-37.267C62.951,79.217,69.15,92.707,68.431,106.228,67.783,118.3,61.739,128.927,51.364,136.307Zm34.69-11.57c-6.769,6.767-16.215,10.674-28.089,11.715A42.585,42.585,0,0,0,72.7,106.458a44.435,44.435,0,0,0-.08-5.854c6.678-4.231,14.937-6.373,25.791-6.618C98.026,106.909,94.067,116.722,86.054,124.737Z" transform="translate(0 -63.999)" fill="#ff7975"/>
    </g>
  </g>
</svg>
