<svg id="passport" xmlns="http://www.w3.org/2000/svg" width="113.97" height="119.355" viewBox="0 0 113.97 119.355">
  <g id="Group_485" data-name="Group 485" transform="translate(12.211 34.128)">
    <g id="Group_484" data-name="Group 484">
      <path id="Path_3639" data-name="Path 3639" d="M83.007,134.152a24.422,24.422,0,1,0,24.422,24.422A24.422,24.422,0,0,0,83.007,134.152Zm18.074,15.264h-8.8a39.536,39.536,0,0,0-3.5-10.257A20.313,20.313,0,0,1,101.081,149.416Zm-11.969,9.158a43.269,43.269,0,0,1-.323,5.088H77.225a40.349,40.349,0,0,1,0-10.176H88.794A43.727,43.727,0,0,1,89.113,158.574Zm-6.7-20.292c.2-.006.389-.06.592-.06s.394.055.6.061a33.821,33.821,0,0,1,4.509,11.133H77.9A33.775,33.775,0,0,1,82.415,138.282Zm-5.181.877a39.655,39.655,0,0,0-3.5,10.257h-8.8A20.317,20.317,0,0,1,77.234,139.159ZM62.655,158.574a20.106,20.106,0,0,1,.722-5.088h9.742a48.018,48.018,0,0,0-.288,5.088,47.24,47.24,0,0,0,.294,5.088H63.378A20.106,20.106,0,0,1,62.655,158.574Zm2.278,9.158h8.815a40.359,40.359,0,0,0,3.48,10.255A20.314,20.314,0,0,1,64.933,167.732ZM83.6,178.866c-.2.006-.388.06-.591.06s-.391-.054-.592-.06a34.065,34.065,0,0,1-4.509-11.134h10.2A34,34,0,0,1,83.6,178.866Zm5.19-.878a40.244,40.244,0,0,0,3.479-10.255h8.814A20.318,20.318,0,0,1,88.789,177.988Zm4.1-14.326a47.443,47.443,0,0,0,.293-5.088,48.022,48.022,0,0,0-.287-5.088h9.741a18.277,18.277,0,0,1,0,10.176Z" transform="translate(-58.585 -134.152)" fill="#ff7975"/>
    </g>
  </g>
  <g id="Group_487" data-name="Group 487" transform="translate(16.281 95.183)">
    <g id="Group_486" data-name="Group 486">
      <rect id="Rectangle_141" data-name="Rectangle 141" width="40.704" height="4.07" fill="#ff7975"/>
    </g>
  </g>
  <g id="Group_489" data-name="Group 489" transform="translate(83.214 65.863)">
    <g id="Group_488" data-name="Group 488" transform="translate(0 0)">
      <rect id="Rectangle_142" data-name="Rectangle 142" width="8.141" height="4.07" transform="matrix(0.259, -0.966, 0.966, 0.259, 0, 7.863)" fill="#ff7975"/>
    </g>
  </g>
  <g id="Group_491" data-name="Group 491" transform="translate(73.733 81.582)">
    <g id="Group_490" data-name="Group 490" transform="translate(0 0)">
      <rect id="Rectangle_143" data-name="Rectangle 143" width="28.492" height="4.07" transform="matrix(0.259, -0.966, 0.966, 0.259, 0, 27.52)" fill="#ff7975"/>
    </g>
  </g>
  <g id="Group_493" data-name="Group 493" transform="translate(0)">
    <g id="Group_492" data-name="Group 492">
      <path id="Path_3640" data-name="Path 3640" d="M118.519,12.921,71.339.279a8.132,8.132,0,0,0-9.97,5.756L57.114,21.917H14.655a4.07,4.07,0,0,0-4.07,4.07v81.407a4.07,4.07,0,0,0,4.07,4.07H61.668l28.407,7.612a8.132,8.132,0,0,0,9.97-5.756l24.23-90.428A8.141,8.141,0,0,0,118.519,12.921ZM14.655,107.394V25.987H75.711a4.075,4.075,0,0,1,4.07,4.07v73.266a4.075,4.075,0,0,1-4.07,4.07ZM120.344,21.838l-24.23,90.428a4.061,4.061,0,0,1-4.986,2.878l-14.194-3.8a8.119,8.119,0,0,0,6.916-8.017V71.055l2.085.559,2.108-7.863L84.111,62.7l-.26.973V31.324L88,32.437l4.814,15.737,3.37.9-.319-14.533,5.953,1.6,2.616,4.614,2.247.6-.386-6.424,3.547-5.371-2.247-.6-4.572,2.688-5.954-1.6,7.543-12.426-3.37-.9L89.209,27.944l-6.349-1.7a8.107,8.107,0,0,0-7.15-4.326H61.327L65.3,7.09a4.061,4.061,0,0,1,4.986-2.878l47.18,12.642a4.072,4.072,0,0,1,2.879,4.984Z" transform="translate(-10.585)" fill="#ff7975"/>
    </g>
  </g>
  <g id="Group_495" data-name="Group 495" transform="translate(83.221 55.104)">
    <g id="Group_494" data-name="Group 494" transform="translate(0 0)">
      <rect id="Rectangle_144" data-name="Rectangle 144" width="4.07" height="4.001" transform="translate(0 3.935) rotate(-75.179)" fill="#ff7975"/>
    </g>
  </g>
  <g id="Group_497" data-name="Group 497" transform="translate(90.946 57.156)">
    <g id="Group_496" data-name="Group 496" transform="translate(0 0)">
      <rect id="Rectangle_145" data-name="Rectangle 145" width="4.07" height="4.001" transform="translate(0 3.935) rotate(-75.179)" fill="#ff7975"/>
    </g>
  </g>
  <g id="Group_499" data-name="Group 499" transform="translate(75.496 53.058)">
    <g id="Group_498" data-name="Group 498" transform="translate(0 0)">
      <rect id="Rectangle_146" data-name="Rectangle 146" width="4.07" height="4.001" transform="translate(0 3.935) rotate(-75.179)" fill="#ff7975"/>
    </g>
  </g>
</svg>
