<svg xmlns="http://www.w3.org/2000/svg" width="351.122" height="698.666" viewBox="0 0 351.122 698.666">
  <path id="Path_48" data-name="Path 48" d="M59.668,128.342V-441.883H188.9V-507.5h49.308v66.009q62.033,3.579,101,35.788,43.344,36.186,43.344,94.242,0,48.513-26.245,84.3t-72.372,50.9v1.591q57.261,6.362,92.254,43.741,34.6,36.186,34.6,95.435,0,73.167-52.489,118.5-48.115,41.753-120.089,45.332v62.828H188.9V128.342ZM342.793-36.283q0-88.675-104.581-100.6V70.286q50.1-4.772,77.342-33.2T342.793-36.283ZM124.484-138.876V71.081H188.9V-138.876Zm0-245.746V-195.74H188.9V-384.622ZM314.56-298.333q0-34.993-19.087-56.267t-57.261-27.636v181.725q36.186-9.146,56.267-34.2T314.56-298.333Z" transform="translate(-59.668 507.495)" fill="#fff0dc" opacity="0.6"/>
</svg>
