<svg xmlns="http://www.w3.org/2000/svg" width="170.11" height="338.486" viewBox="0 0 170.11 338.486">
  <path id="Path_50" data-name="Path 50" d="M59.668-199.448v-276.26h62.611V-507.5h23.889v31.98q30.053,1.734,48.933,17.338,21,17.531,21,45.658,0,23.5-12.715,40.842t-35.062,24.659v.771q27.742,3.082,44.695,21.192,16.761,17.531,16.761,46.236,0,35.448-25.43,57.41-23.311,20.228-58.18,21.962v30.439H122.279v-30.439ZM196.835-279.2q0-42.961-50.667-48.74v100.371q24.274-2.312,37.47-16.086T196.835-279.2ZM91.07-328.909v101.719h31.209V-328.909Zm0-119.058v91.509h31.209v-91.509Zm92.087,41.805q0-16.953-9.247-27.26T146.168-446.81v88.041q17.531-4.431,27.26-16.568T183.157-406.161Z" transform="translate(-59.668 507.495)" fill="#fff0dc"/>
</svg>
