<svg xmlns="http://www.w3.org/2000/svg" width="181.083" height="360.32" viewBox="0 0 181.083 360.32">
  <path id="Path_49" data-name="Path 49" d="M59.668-179.577v-294.08h66.65V-507.5h25.43v34.043q31.992,1.846,52.09,18.457,22.353,18.662,22.353,48.6,0,25.019-13.535,43.476t-37.324,26.25v.82q29.531,3.281,47.578,22.559,17.842,18.662,17.842,49.218,0,37.734-27.07,61.113-24.814,21.533-61.933,23.379v32.4h-25.43v-32.4Zm146.015-84.9q0-45.732-53.935-51.884v106.845q25.84-2.461,39.887-17.124T205.683-264.479ZM93.1-317.389v108.281h33.222V-317.389Zm0-126.738v97.412h33.222v-97.412Zm98.027,44.5q0-18.047-9.844-29.018T151.748-442.9v93.72q18.662-4.717,29.018-17.637T191.122-399.625Z" transform="translate(-59.668 507.495)" fill="#fff0dc"/>
</svg>
