<svg id="plane-tickets" xmlns="http://www.w3.org/2000/svg" width="84.008" height="84.057" viewBox="0 0 84.008 84.057">
  <path id="Path_3424" data-name="Path 3424" d="M82.493,20.131,64.17,2.242a5.683,5.683,0,0,0-7.927.086l-2.157,2.2L48.838.966h0a5.622,5.622,0,0,0-7.786,1.481L9.154,49.17a1.232,1.232,0,0,0,2.034,1.389L31.079,21.422,51.639,35.37l5.819,3.948L29.52,80.24a3.154,3.154,0,0,1-4.368.832L3.966,66.7a3.152,3.152,0,0,1-.826-4.35L7.5,55.959A1.232,1.232,0,0,0,5.468,54.57L1.106,60.96a5.64,5.64,0,0,0,1.477,7.778L23.769,83.11a5.672,5.672,0,0,0,7.786-1.481l3.959-5.8a1.228,1.228,0,0,0,.425-.281L68.521,42.362h0l5.708-5.813a1.232,1.232,0,0,0-1.758-1.726l-4.847,4.937-4.492-4.386L71.5,23.115a5.553,5.553,0,0,0,.876-4.2c-.024-.126-.053-.25-.085-.373l2.472-2.518,6.007,5.865a3.207,3.207,0,0,1,.048,4.427l-2.973,3.028A1.232,1.232,0,0,0,79.6,31.074l2.973-3.029a5.639,5.639,0,0,0-.084-7.914ZM68.64,17.377a3.124,3.124,0,0,1,.826,4.35L58.846,37.283l-9.54-6.472L61.694,12.664ZM43.085,3.836A3.156,3.156,0,0,1,47.455,3l12.2,8.277L47.268,29.428l-14.8-10.04Zm17.1,35.851h0l1.534-2.248L65.9,41.516,43.053,64.786ZM71.079,16.265a5.62,5.62,0,0,0-1.055-.926L56.157,5.932,58,4.052a3.212,3.212,0,0,1,4.448-.046l2.828,2.761L73,14.307Z" transform="translate(-0.15 0)" fill="#16a085"/>
  <path id="Path_3425" data-name="Path 3425" d="M243.271,45.171a1.232,1.232,0,0,0-1.712.323l-6.5,9.523a1.232,1.232,0,0,0,2.035,1.389l6.5-9.523a1.232,1.232,0,0,0-.323-1.712Z" transform="translate(-196.301 -37.574)" fill="#16a085"/>
  <path id="Path_3426" data-name="Path 3426" d="M269.477,83.818a1.232,1.232,0,0,0-2.034-1.389L262.956,89a1.232,1.232,0,0,0,2.035,1.389Z" transform="translate(-219.616 -68.45)" fill="#16a085"/>
  <path id="Path_3427" data-name="Path 3427" d="M120.249,260.746a1.238,1.238,0,0,0,1.712-.323l21.557-31.577a1.232,1.232,0,0,0-2.035-1.389l-21.556,31.576a1.232,1.232,0,0,0,.323,1.712Z" transform="translate(-100.078 -189.662)" fill="#16a085"/>
  <path id="Path_3428" data-name="Path 3428" d="M168.366,311.452,153.66,332.995a1.232,1.232,0,0,0,2.035,1.389L170.4,312.841A1.232,1.232,0,0,0,168.366,311.452Z" transform="translate(-128.269 -259.863)" fill="#16a085"/>
  <path id="Path_3429" data-name="Path 3429" d="M160.306,220.507a1.231,1.231,0,0,0,1.018-.537l9.569-14.018a1.232,1.232,0,0,0-2.034-1.389l-9.569,14.018A1.275,1.275,0,0,0,160.306,220.507Z" transform="translate(-132.996 -170.528)" fill="#16a085"/>
  <path id="Path_3430" data-name="Path 3430" d="M67.728,309a5.09,5.09,0,0,0-7.05,1.341l-3.626,5.312c-3.712,5.437,4.682,11.13,8.388,5.7l3.626-5.312A5.11,5.11,0,0,0,67.728,309Zm-.7,5.655L63.4,319.971c-1.894,2.774-6.221-.138-4.319-2.925l3.626-5.312C64.576,309.005,68.938,311.865,67.031,314.659Z" transform="translate(-46.933 -257.53)" fill="#16a085"/>
  <path id="Path_3431" data-name="Path 3431" d="M328.39,172.451l3.011,2.043a1.233,1.233,0,0,0,1.383-2.039l-3.011-2.043A1.232,1.232,0,0,0,328.39,172.451Z" transform="translate(-274.042 -142.242)" fill="#16a085"/>
  <path id="Path_3432" data-name="Path 3432" d="M342.905,151.189l3.011,2.043c1.272.863,2.73-1.125,1.383-2.038l-3.011-2.043A1.232,1.232,0,0,0,342.905,151.189Z" transform="translate(-286.173 -124.472)" fill="#16a085"/>
  <path id="Path_3433" data-name="Path 3433" d="M357.421,129.926l3.011,2.043a1.233,1.233,0,0,0,1.383-2.039l-3.011-2.043A1.232,1.232,0,0,0,357.421,129.926Z" transform="translate(-298.305 -106.701)" fill="#16a085"/>
  <path id="Path_3434" data-name="Path 3434" d="M371.935,108.665l3.011,2.043c1.272.863,2.73-1.125,1.383-2.038l-3.011-2.043A1.232,1.232,0,0,0,371.935,108.665Z" transform="translate(-310.436 -88.931)" fill="#16a085"/>
</svg>
