<svg xmlns="http://www.w3.org/2000/svg" width="65.562" height="65.211" viewBox="0 0 65.562 65.211">
  <path id="plug" d="M32.783,52.364A14.357,14.357,0,0,1,18.442,38.024V25.868h-.956a1.093,1.093,0,0,1,0-2.185h5.736V12.347a1.093,1.093,0,1,1,2.185,0V23.683h14.75V12.347a1.093,1.093,0,1,1,2.185,0V23.683h5.736a1.093,1.093,0,0,1,0,2.185H20.627V38.024a12.155,12.155,0,1,0,24.311,0V29.556a1.093,1.093,0,1,1,2.185,0v8.468A14.357,14.357,0,0,1,32.783,52.364Zm0-7.238a1.092,1.092,0,0,0,.978-.6l3.278-6.556a1.093,1.093,0,0,0-.977-1.581H31.273L33.76,31.41a1.093,1.093,0,1,0-1.954-.977l-3.278,6.556A1.093,1.093,0,0,0,29.5,38.57h4.788l-2.487,4.974a1.094,1.094,0,0,0,.976,1.582ZM62.8,44.285a1.093,1.093,0,0,0-1.409.634A30.651,30.651,0,0,1,37.676,64.267a3.281,3.281,0,0,1-3.8-3.237V57.145H35.1a1.093,1.093,0,1,0,0-2.185H30.461a1.093,1.093,0,0,0,0,2.185H31.69V61.03a5.466,5.466,0,0,0,6.333,5.395A32.842,32.842,0,0,0,63.438,45.694,1.093,1.093,0,0,0,62.8,44.285ZM63.988,39.7a1.093,1.093,0,0,0-1.3.838q-.058.271-.122.54a1.093,1.093,0,0,0,2.128.5q.068-.289.13-.579a1.093,1.093,0,0,0-.838-1.3ZM32.783,1.284A32.793,32.793,0,0,0,12.767,60.023a1.093,1.093,0,1,0,1.335-1.73,30.594,30.594,0,1,1,49.274-24.23,1.093,1.093,0,1,0,2.185,0A32.76,32.76,0,0,0,32.783,1.284Z" transform="translate(0.001 -1.284)" fill="#4cadc9"/>
</svg>
