<svg xmlns="http://www.w3.org/2000/svg" width="159.108" height="159.108" viewBox="0 0 159.108 159.108">
  <g id="sale" transform="translate(0)">
    <path id="Path_77" data-name="Path 77" d="M159.108,79.554a79.638,79.638,0,0,1-48.2,73.131q-.482.209-.964.409a79.258,79.258,0,0,1-28.769,6c-.539.01-1.081.016-1.624.016q-3.341,0-6.618-.273a79.555,79.555,0,1,1,86.171-79.281Z" transform="translate(0)" fill="#154244"/>
    <path id="Path_78" data-name="Path 78" d="M123.392,238l-12.553-12.261-3.484-3.4a10.1,10.1,0,0,0-11.66-1.76l-3.487,1.789L75.744,230.8a10.087,10.087,0,0,0-5.38,7.475l-1.13,7.468-5.673,37.539A79.542,79.542,0,0,0,116.745,310.1l9.092-60.149.487-3.218A10.1,10.1,0,0,0,123.392,238Zm-17.359-1.159a6.794,6.794,0,1,1-6.254-8.478A6.813,6.813,0,0,1,106.033,236.841Z" transform="translate(-43.809 -151.264)" fill="#6ec8e0"/>
    <path id="Path_79" data-name="Path 79" d="M140.438,362.791l-13.8-2.084,4.935-32.634c.238-1.584-1.525-2.544-3.336-2.819-1.865-.281-3.779.125-4.017,1.706l-5.556,36.762c-.23,1.527,1.232,2.558,2.873,2.808l17.929,2.709c1.471.224,2.453-1.306,2.691-2.89C142.4,364.71,141.909,363.015,140.438,362.791Z" transform="translate(-81.77 -224.122)" fill="#ffde51"/>
    <path id="Path_80" data-name="Path 80" d="M348.933,262.657,346.5,236.449a8.813,8.813,0,0,0-4.315-6.793l-11.154-6.55-5.741-3.374a8.824,8.824,0,0,0-10.257.952l-14.781,12.858a8.818,8.818,0,0,0-2.994,7.472l.786,8.465,4.559,49.21a5.8,5.8,0,0,0,6.316,5.244l6.848-.636a79.81,79.81,0,0,0,34.315-28.22Zm-28.8-36.221a5.936,5.936,0,1,1-4.786,5.763A5.938,5.938,0,0,1,320.134,226.436Z" transform="translate(-204.859 -150.613)" fill="#73da92"/>
    <path id="Path_81" data-name="Path 81" d="M371.654,346.988c-.151-1.639-1.078-2.994-2.454-2.867l-2.318.214-12.657,1.174-.984-10.638,8.042-.745a2.4,2.4,0,0,0,1.926-2.847c-.133-1.428-1.05-2.677-2.427-2.551l-8.041.746-.981-10.583,14.975-1.388c1.376-.127,2.038-1.63,1.884-3.269-.133-1.428-.963-2.9-2.442-2.762l-18.839,1.745c-1.536.145-2.949,1.02-2.816,2.451l3.184,34.342c.133,1.428,1.681,2.032,3.218,1.89l9.231-.854,9.608-.89C371.24,350.016,371.787,348.419,371.654,346.988Z" transform="translate(-237.452 -214.674)" fill="#f9435c"/>
    <path id="Path_82" data-name="Path 82" d="M88.326,237.234a10.087,10.087,0,0,0-5.38,7.475l-1.13,7.468,13.657,1.708a6.126,6.126,0,0,0,6.842-5.319l2.474-19.765Z" transform="translate(-56.391 -157.7)" fill="#4cadc9"/>
    <path id="Path_83" data-name="Path 83" d="M37.771,2.033l-18.163,9.9a9.317,9.317,0,0,0-4.786,7.024L7.229,79.645a6.128,6.128,0,0,0,5.32,6.841l39.656,4.961a6.128,6.128,0,0,0,6.841-5.32l7.592-60.688a9.317,9.317,0,0,0-2.908-7.986L48.566,3.384A9.316,9.316,0,0,0,37.771,2.033Zm3.672,19.619a6.268,6.268,0,1,1,6.247-4.858A6.269,6.269,0,0,1,41.443,21.653Z" transform="translate(-4.95 -0.618)" fill="#ffde51"/>
    <path id="Path_84" data-name="Path 84" d="M72.343,136.436c1.124-8.984-18.446-8.634-16.67-22.828,1.116-8.924,9.165-11.019,16.052-10.158,3.534.442,11.274,2.262,10.78,6.215-.172,1.378-1.475,4.012-3.631,3.743-1.856-.232-2.949-2.681-7.98-3.31-4.312-.539-6.985.89-7.345,3.765-.929,7.426,18.618,7.256,16.677,22.768-1.071,8.564-7.615,12.247-15.88,11.213-7.846-.981-13.34-5.683-12.906-9.157.21-1.677,2.082-4,3.939-3.765,2.456.307,3.5,5.121,9.6,5.885C68.577,141.257,71.894,140.03,72.343,136.436Z" transform="translate(-35.439 -71.18)" fill="#f9435c"/>
    <path id="Path_85" data-name="Path 85" d="M228.251,251.919,215.7,239.658l2.14,19.252a6.349,6.349,0,0,0,7.014,5.608l5.845-.649.487-3.218A10.1,10.1,0,0,0,228.251,251.919Z" transform="translate(-148.668 -165.183)" fill="#4cadc9"/>
    <path id="Path_86" data-name="Path 86" d="M332.827,239.223l-1.792-16.115-5.741-3.374a8.824,8.824,0,0,0-10.257.952l-14.781,12.859a8.818,8.818,0,0,0-2.994,7.471l.786,8.465,29.172-3.244A6.35,6.35,0,0,0,332.827,239.223Z" transform="translate(-204.859 -150.614)" fill="#42c670"/>
    <path id="Path_87" data-name="Path 87" d="M251.342,3.131,235.43,17.492a9.654,9.654,0,0,0-3.127,8.233l7,62.987a6.35,6.35,0,0,0,7.013,5.609l41.158-4.576a6.35,6.35,0,0,0,5.609-7.013l-7-62.987a9.652,9.652,0,0,0-4.859-7.345L262.546,1.885A9.653,9.653,0,0,0,251.342,3.131Zm8.438,18.883a6.494,6.494,0,1,1,5.121-6.4A6.5,6.5,0,0,1,259.78,22.014Z" transform="translate(-160.073 -0.443)" fill="#f9435c"/>
    <path id="Path_88" data-name="Path 88" d="M288.865,150.01a3.631,3.631,0,0,1,.055-.636l7.65-40.432c.352-1.927,2.555-3.053,4.855-3.308,2.362-.263,4.759.352,5.526,2.154l16.344,37.765a2.763,2.763,0,0,1,.194.608c.214,1.927-2.548,3.682-4.724,3.924-1.367.152-2.473-.166-2.915-1.312l-3.281-8-14.235,1.583-1.443,8.53c-.18,1.216-1.188,1.768-2.555,1.92C292.16,153.042,289.086,152,288.865,150.01Zm21.258-15.389-7.529-18.482-3.286,19.685Z" transform="translate(-199.096 -72.767)" fill="#4d4949"/>
  </g>
</svg>
