<svg xmlns="http://www.w3.org/2000/svg" width="96.437" height="55.698" viewBox="0 0 96.437 55.698">
  <g id="surface1" transform="translate(0 20.382) rotate(-13)">
    <path id="Path_3417" data-name="Path 3417" d="M240,86.891h6.04v3.021H240Zm0,0" transform="translate(-202.248 -73.3)" fill="#b188c0"/>
    <path id="Path_3418" data-name="Path 3418" d="M89.309,9.568,79.052,8.1a51.77,51.77,0,0,0-5.813-3.08A50.853,50.853,0,0,0,52.2.492H50.419a51.33,51.33,0,0,0-24.51,6.25L20.732,9.566A35.681,35.681,0,0,0,3.464,14.247,6.894,6.894,0,0,0,0,20.217v8.967a1.51,1.51,0,0,0,1.51,1.51h5.07a9.027,9.027,0,0,0,17.038,0H63.964a9.027,9.027,0,0,0,17.038,0h.542a1.517,1.517,0,0,0,.562-.107L87,28.624a5.711,5.711,0,0,0,3.608-5.329V11.063A1.511,1.511,0,0,0,89.309,9.568ZM21.019,28.882a6.041,6.041,0,1,1,.122-1.208A6.04,6.04,0,0,1,21.019,28.882Zm27.3-1.208H24.161a9.061,9.061,0,1,0-18.121,0H3.02V20.217a3.863,3.863,0,0,1,1.944-3.348,32.649,32.649,0,0,1,16.177-4.3H48.323Zm0-18.121H27.064l.291-.159A48.285,48.285,0,0,1,48.323,3.578Zm3.02-6.041H52.2a47.794,47.794,0,0,1,17.768,3.4L67.329,9.553H51.343ZM78.4,28.882a6.041,6.041,0,1,1,.122-1.208A6.04,6.04,0,0,1,78.4,28.882Zm9.183-14.8h-4.53V17.1h4.53v6.191a2.7,2.7,0,0,1-1.709,2.523l-4.331,1.74c0-.139-.018-.277-.027-.415s-.012-.3-.027-.453-.045-.3-.07-.453-.042-.3-.073-.439-.074-.29-.114-.434-.07-.288-.115-.429-.1-.275-.151-.412-.1-.279-.151-.415-.124-.259-.187-.388-.125-.269-.2-.4-.151-.24-.219-.361-.151-.259-.237-.382-.166-.222-.249-.334-.177-.243-.273-.36-.187-.207-.281-.3-.2-.223-.3-.329-.207-.189-.311-.283-.216-.2-.331-.3-.231-.173-.345-.259-.23-.178-.35-.259-.257-.151-.386-.235-.236-.151-.358-.216-.275-.133-.414-.2-.248-.125-.376-.179-.3-.112-.453-.166-.249-.1-.378-.138c-.172-.053-.348-.091-.524-.135-.115-.027-.225-.063-.341-.087-.186-.038-.376-.059-.565-.087-.112-.015-.219-.039-.33-.05a9.178,9.178,0,0,0-.921-.047,9.069,9.069,0,0,0-9.061,9.061H51.343v-15.1H67.954a1.508,1.508,0,0,0,1.067-.442l3.916-3.916a48.424,48.424,0,0,1,4.787,2.619,1.515,1.515,0,0,0,.586.214l9.275,1.324Zm0,0" transform="translate(0 -0.492)" fill="#b188c0"/>
  </g>
</svg>
