<svg xmlns="http://www.w3.org/2000/svg" width="78.963" height="83.196" viewBox="0 0 78.963 83.196">
  <path id="tshirt" d="M84.964,28.185l-9.5-19.163a2.48,2.48,0,0,0-.887-.989L63.182.759A4.2,4.2,0,0,0,58.739.714C55.114,2.957,51.23,2.889,46.867.507a4.183,4.183,0,0,0-4.234.143L40.667,1.89l-.007,0L30.937,8.03a2.479,2.479,0,0,0-.9,1l-9.5,19.159a1.724,1.724,0,0,0,.689,2.261L31.6,36.369v32.4a1.666,1.666,0,0,0,1.664,1.664H72.246a1.666,1.666,0,0,0,1.664-1.664V57.659a1.04,1.04,0,0,0-2.081,0V68.348H33.677V23.406a1.04,1.04,0,0,0-2.081,0V33.973l-9.041-5.166L31.9,9.949a.4.4,0,0,1,.144-.16L40.5,4.456a12.707,12.707,0,0,0,2.47,4.725,1.04,1.04,0,0,0,1.6-1.329,10.612,10.612,0,0,1-2.218-4.567l1.39-.877c.043-.027.088-.053.132-.077a8.909,8.909,0,0,0,2.6,5.149,8.968,8.968,0,0,0,12.514.036A8.915,8.915,0,0,0,61.637,2.3a2.118,2.118,0,0,1,.426.208l1.1.7a10.681,10.681,0,0,1-10.413,8.49,10.609,10.609,0,0,1-5.27-1.4,1.04,1.04,0,1,0-1.035,1.8,12.693,12.693,0,0,0,6.3,1.679A12.778,12.778,0,0,0,65.021,4.4l8.437,5.386a.4.4,0,0,1,.143.159L82.95,28.806,73.91,33.972V23.405a1.04,1.04,0,1,0-2.081,0V53.5a1.04,1.04,0,1,0,2.081,0V36.369l10.366-5.923a1.724,1.724,0,0,0,.689-2.261ZM52.753,7.962a6.849,6.849,0,0,1-4.82-1.967,6.844,6.844,0,0,1-1.939-3.6c4.81,2.586,9.332,2.693,13.452.316A6.855,6.855,0,0,1,52.753,7.962Z" transform="translate(-3.998 -4.581) rotate(13)" fill="#1020a5"/>
</svg>
