<svg xmlns="http://www.w3.org/2000/svg" width="100.92" height="101.926" viewBox="0 0 100.92 101.926">
  <path id="Union_6" data-name="Union 6" d="M18012.266,2994.569l-31.664-24.289a6.582,6.582,0,0,1-1.215-9.217l10.746-14h-22.562a6.587,6.587,0,0,1-6.574-6.576v-39.909a6.587,6.587,0,0,1,6.574-6.576h64.18a6.418,6.418,0,0,1,4.891,2.18l8.707,9.677c.406-.026.789-.035,1.152-.035a10.975,10.975,0,0,1,7.031,2.18c2.91,2.233,3.82,5.3,4.324,8.01l3.945,21.214a6.432,6.432,0,0,1-1.254,5.2l-39.062,50.933a6.589,6.589,0,0,1-9.219,1.208Zm32.715-84.63-21.508,1.685a2.384,2.384,0,0,0-1.809.982l-39.066,50.924a2.528,2.528,0,0,0,.461,3.527l31.676,24.3a2.5,2.5,0,0,0,1.527.521,2.529,2.529,0,0,0,2.008-.982l39.066-50.933a2.349,2.349,0,0,0,.477-1.989l-3.945-21.223c-.52-2.806-1.336-4.4-2.8-5.534a7.342,7.342,0,0,0-4.684-1.338C18045.945,2909.878,18045.492,2909.9,18044.98,2909.939Zm-79.93-9.365v39.909a2.521,2.521,0,0,0,2.52,2.519h25.672l25.207-32.864a6.419,6.419,0,0,1,4.7-2.554l17.094-1.338-6.617-7.358a2.37,2.37,0,0,0-1.879-.834h-64.18A2.521,2.521,0,0,0,17965.051,2900.574Zm44.32,79.409-14.035-10.772a1.989,1.989,0,0,1-.773-1.338,1.958,1.958,0,0,1,.391-1.494l2.648-3.449a6.446,6.446,0,0,1,5.109-2.441,6.257,6.257,0,0,1,3.813,1.26c.078.052.73.556,7.148,5.481a6.533,6.533,0,0,1,1.184,8.93c-.078.1-2.625,3.405-2.641,3.44a2.026,2.026,0,0,1-2.844.382Zm-8.555-14.594-.121.156c-.254.322-.844,1.095-1.3,1.685l10.836,8.314,1.406-1.842a2.354,2.354,0,0,0-.426-3.258c-.141-.1-1.023-.791-7.148-5.482a2.264,2.264,0,0,0-1.4-.469A2.345,2.345,0,0,0,18000.816,2965.389Zm17.348,3.136-14.039-10.772a2.023,2.023,0,0,1-.383-2.832l5.293-6.9a2.034,2.034,0,0,1,2.832-.382,2.033,2.033,0,0,1,.383,2.841l-4.059,5.291,3.8,2.919,2.52-3.275a2,2,0,0,1,1.605-.791,1.971,1.971,0,0,1,1.227.417,2.03,2.03,0,0,1,.383,2.832l-2.52,3.284,3.8,2.919,4.059-5.282a2.021,2.021,0,0,1,3.613.956,1.988,1.988,0,0,1-.4,1.494l-5.289,6.9a2,2,0,0,1-1.6.791A2.022,2.022,0,0,1,18018.164,2968.525Zm7.984-11.154-10.59-15.272a2.018,2.018,0,0,1,1.66-3.171c.094,0,.2.009.285.017l.02-.035.379.13,17.5,6.263a2.03,2.03,0,0,1,1.227,2.589,2.015,2.015,0,0,1-2.59,1.225l-3.918-1.4-3.016,3.935,2.363,3.414a2,2,0,0,1,.332,1.511,1.967,1.967,0,0,1-.844,1.3,2.019,2.019,0,0,1-2.8-.513Zm-1.469-9.208,1.441-1.876-3.648-1.3Zm11.926-3.683-14.047-10.763a2.031,2.031,0,0,1-.371-2.841,2,2,0,0,1,1.605-.791,1.969,1.969,0,0,1,1.227.417l12.438,9.538,4.059-5.29a2,2,0,0,1,1.605-.791,2.02,2.02,0,0,1,2,1.755,2.017,2.017,0,0,1-.391,1.494l-5.293,6.9a2.02,2.02,0,0,1-2.832.374Zm-49.637-15.507a6.242,6.242,0,1,1,6.246,6.237A6.25,6.25,0,0,1,17986.969,2928.972Zm4.059,0a2.184,2.184,0,1,0,2.188-2.189A2.188,2.188,0,0,0,17991.027,2928.972Zm-14.91,5.629a2.022,2.022,0,0,1-.457-2.815l17.746-24.7a2.02,2.02,0,0,1,1.633-.834,1.984,1.984,0,0,1,1.18.382,2.012,2.012,0,0,1,.461,2.814l-17.738,24.7a2.034,2.034,0,0,1-1.641.834A2,2,0,0,1,17976.117,2934.6Zm63.488-8.453a6.251,6.251,0,1,1,8.766-1.156,6.309,6.309,0,0,1-4.988,2.424A6.184,6.184,0,0,1,18039.605,2926.149Zm2.059-6.3a2.233,2.233,0,0,0,.406,3.084,2.207,2.207,0,0,0,1.332.443,2.237,2.237,0,0,0,1.754-.851,2.145,2.145,0,0,0,.2-2.293,2.167,2.167,0,0,0-1.937-1.242A2.2,2.2,0,0,0,18041.664,2919.851Zm-68.785-7.766a6.236,6.236,0,1,1,6.238,6.237A6.243,6.243,0,0,1,17972.879,2912.084Zm4.047,0a2.189,2.189,0,1,0,2.191-2.18A2.193,2.193,0,0,0,17976.926,2912.084Z" transform="translate(-17960.996 -2893.998)" fill="#547abb"/>
</svg>
